<?xml version="1.0" encoding="UTF-8" standalone="no"?>
<!-- Created with Inkscape (http://www.inkscape.org/) -->

<svg
   width="500.0px"
   height="500.0px"
   viewBox="0 0 500.0 500.0"
   version="1.1"
   id="SVGRoot"
   sodipodi:docname="logo.svg"
   inkscape:version="1.1.1 (3bf5ae0d25, 2021-09-20, custom)"
   xmlns:inkscape="http://www.inkscape.org/namespaces/inkscape"
   xmlns:sodipodi="http://sodipodi.sourceforge.net/DTD/sodipodi-0.dtd"
   xmlns="http://www.w3.org/2000/svg"
   xmlns:svg="http://www.w3.org/2000/svg">
  <sodipodi:namedview
     id="namedview927"
     pagecolor="#ffffff"
     bordercolor="#666666"
     borderopacity="1.0"
     inkscape:pageshadow="2"
     inkscape:pageopacity="0.0"
     inkscape:pagecheckerboard="0"
     inkscape:document-units="px"
     showgrid="true"
     inkscape:zoom="1.4645623"
     inkscape:cx="195.62159"
     inkscape:cy="238.29645"
     inkscape:window-width="1906"
     inkscape:window-height="1048"
     inkscape:window-x="1926"
     inkscape:window-y="24"
     inkscape:window-maximized="1"
     inkscape:current-layer="layer1">
    <inkscape:grid
       type="xygrid"
       id="grid990" />
  </sodipodi:namedview>
  <defs
     id="defs922">
    <inkscape:path-effect
       effect="spiro"
       id="path-effect1081"
       is_visible="true"
       lpeversion="1" />
    <inkscape:path-effect
       effect="spiro"
       id="path-effect1077"
       is_visible="true"
       lpeversion="1" />
    <inkscape:path-effect
       effect="spiro"
       id="path-effect1073"
       is_visible="true"
       lpeversion="1" />
    <inkscape:path-effect
       effect="spiro"
       id="path-effect1069"
       is_visible="true"
       lpeversion="1" />
  </defs>
  <g
     inkscape:label="Слой 1"
     inkscape:groupmode="layer"
     id="layer1">
    <path
       style="fill:none;stroke:#389826;stroke-width:37.7953;stroke-linecap:round;stroke-linejoin:miter;stroke-miterlimit:4;stroke-dasharray:none;stroke-opacity:1"
       d="m 30,230 c 59.013173,5.23473 116.10391,30.21193 160,70 15.64901,14.1845 29.80756,30.41632 39.04067,49.41213 9.23311,18.99582 13.25801,41.00215 8.40851,61.55875 -4.95625,21.00911 -19.15028,39.45077 -37.63832,50.59256 -18.48804,11.14179 -40.97508,15.09996 -62.34718,12.07 -12.87562,-1.8254 -25.44686,-6.132 -36.47311,-13.02662 C 89.964329,453.71221 80.516005,444.19894 74.135441,432.86747 67.754877,421.536 64.508399,408.38279 65.385552,395.40803 66.262704,382.43327 71.337318,369.69906 80,360 91.751345,346.84276 110.04591,339.84023 127.57907,341.78836 145.11223,343.73649 161.42345,354.58411 170,370"
       id="path1067"
       inkscape:path-effect="#path-effect1069"
       inkscape:original-d="m 30,230 c 56.66767,0.001 103.33433,70.001 160,70 56.66567,-10e-4 30.78351,94.30521 47.44918,110.97088 16.66567,16.66567 -66.65117,19.33023 -99.9855,62.66256 C 104.12935,516.96577 100.001,400.001 80,360 c -20.001,-40.001 56.66767,6.66767 90,10"
       sodipodi:nodetypes="cssssc" />
    <path
       style="fill:none;stroke:#cb3c33;stroke-width:37.7953;stroke-linecap:round;stroke-linejoin:miter;stroke-miterlimit:4;stroke-dasharray:none;stroke-opacity:1"
       d="m 30,60 c 58.43709,52.44212 127.39875,93.10816 201.57187,118.86504 31.83071,11.05333 64.61873,19.39007 97.91223,24.57788 17.88285,2.78652 36.03969,4.66724 54.07273,3.1277 18.03305,-1.53955 36.04116,-6.65737 50.96311,-16.89926 16.62523,-11.41097 28.8296,-29.0673 33.73694,-48.62558 4.90734,-19.55829 2.49784,-40.84448 -6.55795,-58.861169 -7.21182,-14.348077 -18.47234,-26.535946 -31.8348,-35.442267 -13.36245,-8.906322 -28.77915,-14.574757 -44.63158,-17.139559 -15.44529,-2.498929 -31.62088,-2.033238 -46.29494,3.395689 -14.67407,5.428927 -27.71215,16.165937 -34.06166,30.465769 -5.09884,11.483171 -5.67081,24.718621 -2.65521,36.915647 3.01561,12.19703 9.473,23.38461 17.6884,32.89085 6.10435,7.06349 13.24549,13.30166 21.40439,17.83911 8.1589,4.53744 17.36463,7.33621 26.69951,7.46327 9.33487,0.12705 18.78357,-2.50077 26.3617,-7.95312 7.57812,-5.45235 13.15935,-13.79496 14.70616,-23.00166 1.76201,-10.48758 -1.95552,-21.74309 -9.61729,-29.118131 C 391.80184,91.125168 380.41278,87.839442 370,90"
       id="path1071"
       inkscape:path-effect="#path-effect1073"
       inkscape:original-d="m 30,60 c 50,70 150,130 201.57187,118.86504 81.45532,-17.58714 44.5799,31.24555 97.91223,24.57788 53.33233,-6.66767 91.70351,16.22944 105.03584,-13.77156 13.33233,-30.001 43.84666,-100.819082 27.17899,-107.486749 -16.66767,-6.667667 -33.13205,-62.580826 -76.46638,-52.581826 -43.33433,9.999 -80.3556,13.862458 -80.3566,33.861458 -10e-4,19.998996 -11.286,74.091177 15.03319,69.806497 C 340,130 392.41523,134.28601 409.0809,127.61834 425.74657,120.95067 390.001,100.001 370,90"
       sodipodi:nodetypes="cssssssssc" />
    <path
       style="fill:none;stroke:#9558b2;stroke-width:37.7953;stroke-linecap:round;stroke-linejoin:miter;stroke-miterlimit:4;stroke-dasharray:none;stroke-opacity:1"
       d="m 30,130 c 65.428184,72.09237 160.10728,116.83067 257.34609,121.60262 32.72775,1.6061 66.25681,-1.02277 97.61874,8.47008 24.677,7.46941 47.07697,22.5003 62.99211,42.78465 15.91513,20.28435 25.20853,45.76397 25.6445,71.54296 0.32049,18.95089 -4.15928,38.11725 -13.87655,54.39034 -9.71728,16.2731 -24.79335,29.501 -42.61646,35.94893 -20.67117,7.47828 -44.30383,5.46484 -64.06255,-4.16921 -19.75871,-9.63405 -35.61908,-26.53458 -45.28824,-46.27614 -7.15957,-14.61771 -11.07507,-31.07565 -9.43038,-47.26922 1.6447,-16.19357 9.17877,-32.0415 21.87109,-42.23177 11.05196,-8.87328 25.80805,-13.09127 39.83187,-11.03859 14.02382,2.05268 27.06642,10.44702 34.43869,22.552 6.26391,10.28508 8.34569,23.03673 5.67804,34.77994 C 397.4793,382.82981 390.09267,393.43056 380,400"
       id="path1075"
       inkscape:path-effect="#path-effect1077"
       inkscape:original-d="m 30,130 c 66.66767,0.001 190.68042,121.60362 257.34609,121.60262 66.66567,-0.001 84.28641,5.13775 97.61874,8.47008 13.33233,3.33233 79.66763,108.7921 88.63661,114.32761 14.08054,8.69028 -43.15868,50.34027 -56.49301,90.33927 -13.33433,39.999 -76.01646,-43.77768 -109.35079,-50.44535 -33.33433,-6.66767 5.77504,-56.16666 12.44071,-89.50099 6.66567,-33.33433 47.60489,1.51441 74.27056,11.51341 C 421.13458,346.30565 383.33433,386.66767 380,400"
       sodipodi:nodetypes="csssssssc" />
    <path
       style="fill:none;stroke:#4063d8;stroke-width:37.7953;stroke-linecap:round;stroke-linejoin:miter;stroke-miterlimit:4;stroke-dasharray:none;stroke-opacity:1"
       d="m 80,30 c 16.513329,7.575468 31.96005,17.471565 45.74443,29.306627 8.1735,7.017649 15.7764,14.720666 24.40962,21.164344 15.44411,11.527195 34.39915,18.822178 53.66886,18.548465 9.7162,-0.138012 19.56784,-2.252595 27.85734,-7.322862 8.28951,-5.070268 14.87459,-13.306909 16.75091,-22.841213 1.18268,-6.00962 0.4622,-12.379262 -2.03292,-17.972883 -2.49513,-5.593622 -6.75331,-10.385214 -12.01508,-13.520185 -5.26177,-3.13497 -11.50266,-4.598742 -17.60961,-4.130247 C 210.66661,33.700541 204.72201,36.099123 200,40"
       id="path1079"
       inkscape:path-effect="#path-effect1081"
       inkscape:original-d="M 80,30 C 100,0 52.30053,65.522602 125.74443,59.306627 165.73868,55.921686 103.48838,103.80531 150.15405,80.470971 196.81972,57.136638 236.937,95.190404 203.82291,99.019436 160.77057,103.99764 268.43216,52.189692 248.43116,68.855361 228.43016,85.521021 180.001,33.334333 200,40"
       sodipodi:nodetypes="cssssc" />
  </g>
</svg>
