<?xml version="1.0" encoding="UTF-8" standalone="no"?>
<!-- Created with Inkscape (http://www.inkscape.org/) -->

<svg
   width="1280"
   height="640"
   viewBox="0 0 338.66667 169.33333"
   version="1.1"
   id="svg1823"
   inkscape:version="1.1.1 (3bf5ae0d25, 2021-09-20, custom)"
   sodipodi:docname="logo_text.svg"
   xmlns:inkscape="http://www.inkscape.org/namespaces/inkscape"
   xmlns:sodipodi="http://sodipodi.sourceforge.net/DTD/sodipodi-0.dtd"
   xmlns="http://www.w3.org/2000/svg"
   xmlns:svg="http://www.w3.org/2000/svg">
  <sodipodi:namedview
     id="namedview1825"
     pagecolor="#ffffff"
     bordercolor="#666666"
     borderopacity="1.0"
     inkscape:pageshadow="2"
     inkscape:pageopacity="0.0"
     inkscape:pagecheckerboard="0"
     inkscape:document-units="px"
     showgrid="false"
     units="px"
     inkscape:zoom="1.0356019"
     inkscape:cx="771.04916"
     inkscape:cy="342.79581"
     inkscape:window-width="1906"
     inkscape:window-height="1048"
     inkscape:window-x="1926"
     inkscape:window-y="24"
     inkscape:window-maximized="1"
     inkscape:current-layer="layer1" />
  <defs
     id="defs1820">
    <rect
       x="593.84877"
       y="215.86327"
       width="796.82592"
       height="113.64612"
       id="rect8383" />
    <inkscape:path-effect
       effect="spiro"
       id="path-effect1081"
       is_visible="true"
       lpeversion="1" />
    <inkscape:path-effect
       effect="spiro"
       id="path-effect1077"
       is_visible="true"
       lpeversion="1" />
    <inkscape:path-effect
       effect="spiro"
       id="path-effect1073"
       is_visible="true"
       lpeversion="1" />
    <inkscape:path-effect
       effect="spiro"
       id="path-effect1069"
       is_visible="true"
       lpeversion="1" />
    <rect
       x="593.84875"
       y="215.86327"
       width="773.09534"
       height="116.96974"
       id="rect8383-7" />
  </defs>
  <g
     inkscape:label="Ğ¡Ğ»Ğ¾Ğ¹ 1"
     inkscape:groupmode="layer"
     id="layer1">
    <path
       style="fill:none;stroke:#389826;stroke-width:7.80017;stroke-linecap:round;stroke-linejoin:miter;stroke-miterlimit:4;stroke-dasharray:none;stroke-opacity:1"
       d="m 16.784213,76.87941 c 12.179117,1.080346 23.961482,6.235135 33.020738,14.446586 3.229635,2.927391 6.151671,6.277308 8.057195,10.197654 1.905525,3.92035 2.736182,8.46201 1.735347,12.70447 -1.022867,4.33585 -3.952224,8.14184 -7.767778,10.44128 -3.815553,2.29944 -8.456421,3.11633 -12.867187,2.49101 -2.657267,-0.37672 -5.251716,-1.26552 -7.527309,-2.68843 -2.275593,-1.4229 -4.225535,-3.38625 -5.542353,-5.72484 -1.316819,-2.33858 -1.986825,-5.05314 -1.805797,-7.73086 0.181027,-2.67773 1.228326,-5.30581 3.016129,-7.3075 2.42524,-2.71538 6.200867,-4.160562 9.819354,-3.758505 3.618487,0.402055 6.984788,2.640785 8.754811,5.822315"
       id="path1067"
       inkscape:path-effect="#path-effect1069"
       inkscape:original-d="m 16.784213,76.87941 c 11.695051,2.08e-4 21.326099,14.446787 33.020738,14.446586 11.694639,-2.14e-4 6.353095,19.462674 9.792542,22.902124 3.439456,3.43946 -13.755436,3.98938 -20.634965,12.93229 -6.879528,8.94291 -7.731534,-15.19624 -11.85933,-23.45163 -4.127799,-8.255409 11.695051,1.37607 18.574165,2.06381"
       sodipodi:nodetypes="cssssc" />
    <path
       style="fill:none;stroke:#cb3c33;stroke-width:7.80017;stroke-linecap:round;stroke-linejoin:miter;stroke-miterlimit:4;stroke-dasharray:none;stroke-opacity:1"
       d="m 16.784213,41.794875 c 12.060228,10.822982 26.292509,19.215624 41.60033,24.531322 6.569209,2.281182 13.335985,4.001716 20.207083,5.072374 3.690653,0.575079 7.437853,0.96322 11.159504,0.64549 3.72165,-0.317731 7.438156,-1.373944 10.51774,-3.48766 3.43111,-2.354991 5.94984,-5.998896 6.96262,-10.035328 1.01278,-4.036431 0.51551,-8.429467 -1.35342,-12.147746 -1.48837,-2.961151 -3.81231,-5.476479 -6.57005,-7.314562 -2.757737,-1.838084 -5.939429,-3.007934 -9.211047,-3.537257 -3.187593,-0.515729 -6.525906,-0.41962 -9.554335,0.7008 -3.028429,1.12042 -5.719223,3.336321 -7.029632,6.287516 -1.052296,2.369893 -1.170337,5.10142 -0.547978,7.618638 0.622359,2.517218 1.955034,4.826107 3.650526,6.788 1.259814,1.457761 2.7336,2.745192 4.417431,3.681628 1.68383,0.936437 3.583707,1.514046 5.510235,1.540268 1.926528,0.02622 3.876549,-0.516108 5.440519,-1.641361 1.56397,-1.125254 2.715823,-2.846998 3.035054,-4.747074 0.363644,-2.164424 -0.403579,-4.487334 -1.984815,-6.009393 -1.581236,-1.522059 -3.931707,-2.200165 -6.080694,-1.754267"
       id="path1071"
       inkscape:path-effect="#path-effect1073"
       inkscape:original-d="m 16.784213,41.794875 c 10.318985,14.446574 30.956945,26.82935 41.60033,24.531322 16.810714,-3.629627 9.200376,6.448445 20.207083,5.072374 11.006718,-1.376071 18.925732,3.349425 21.677244,-2.84217 2.75153,-6.191595 9.04906,-20.807004 5.6092,-22.183074 -3.43987,-1.376071 -6.837784,-12.915408 -15.781097,-10.851819 -8.943331,2.063591 -16.583753,2.86093 -16.583967,6.988316 -2.01e-4,4.127385 -2.329195,15.290909 3.102548,14.406638 4.146339,-0.675013 14.963775,0.209532 18.403239,-1.166539 3.439446,-1.376072 -3.937718,-5.699658 -8.065509,-7.76366"
       sodipodi:nodetypes="cssssssssc" />
    <path
       style="fill:none;stroke:#9558b2;stroke-width:7.80017;stroke-linecap:round;stroke-linejoin:miter;stroke-miterlimit:4;stroke-dasharray:none;stroke-opacity:1"
       d="m 16.784213,56.241449 c 13.503048,14.878392 33.042885,24.111463 53.110993,25.096299 6.754342,0.331467 13.674057,-0.211078 20.146521,1.748059 5.09283,1.541538 9.715725,4.643614 13.000283,8.829895 3.28455,4.186282 5.20252,9.444758 5.29249,14.765018 0.0661,3.91108 -0.85839,7.86662 -2.86383,11.22505 -2.00545,3.35844 -5.11684,6.08841 -8.795161,7.41913 -4.266108,1.54337 -9.143413,1.12783 -13.22121,-0.86044 -4.077797,-1.98827 -7.351053,-5.4762 -9.346571,-9.55046 -1.47759,-3.0168 -2.285672,-6.41339 -1.946239,-9.75542 0.339433,-3.34202 1.894314,-6.612716 4.513755,-8.715781 2.2809,-1.831262 5.326255,-2.701767 8.220484,-2.278136 2.894229,0.423632 5.585954,2.15605 7.107443,4.654269 1.292747,2.122638 1.722387,4.754318 1.171839,7.177878 -0.550548,2.42357 -2.075,4.61135 -4.157924,5.96715"
       id="path1075"
       inkscape:path-effect="#path-effect1077"
       inkscape:original-d="m 16.784213,56.241449 c 13.758845,2.05e-4 39.352553,25.096514 53.110993,25.096299 13.758432,-2e-4 17.394981,1.060335 20.146521,1.748059 2.751511,0.687723 16.441753,22.452483 18.292773,23.594913 2.90593,1.79349 -8.907064,10.38919 -11.658991,18.64418 -2.751941,8.25497 -15.688251,-9.03483 -22.567781,-10.4109 -6.879526,-1.37607 1.191853,-11.59166 2.567516,-18.471201 1.375649,-6.87953 9.824674,0.312545 15.327927,2.376133 5.503252,2.063608 -2.297959,10.393518 -2.986085,13.145028"
       sodipodi:nodetypes="csssssssc" />
    <path
       style="fill:none;stroke:#4063d8;stroke-width:7.80017;stroke-linecap:round;stroke-linejoin:miter;stroke-miterlimit:4;stroke-dasharray:none;stroke-opacity:1"
       d="m 27.103198,35.603485 c 3.408012,1.563424 6.595899,3.605777 9.440713,6.048291 1.686845,1.448299 3.255928,3.038044 5.03765,4.367888 3.187349,2.378977 7.099281,3.884514 11.076156,3.828026 2.005225,-0.02848 4.038403,-0.464889 5.749188,-1.511289 1.710786,-1.046399 3.069812,-2.746275 3.457046,-4.713961 0.24408,-1.240262 0.09539,-2.554825 -0.419554,-3.709234 -0.514943,-1.154409 -1.393743,-2.143295 -2.479664,-2.790289 -1.085921,-0.646994 -2.373914,-0.949087 -3.634262,-0.8524 -1.260348,0.09669 -2.487191,0.591705 -3.461718,1.396765"
       id="path1079"
       inkscape:path-effect="#path-effect1081"
       inkscape:original-d="m 27.103198,35.603485 c 4.127586,-6.191388 -5.716609,7.331141 9.440713,6.048291 8.253999,-0.698584 -4.593194,9.183623 5.03765,4.367888 9.630846,-4.815729 17.910232,3.037792 11.076156,3.828026 -8.885124,1.027401 13.334033,-9.664704 9.206234,-6.22525 -4.127798,3.439454 -14.12259,-7.330816 -9.995198,-5.955158"
       sodipodi:nodetypes="cssssc" />
    <text
       xml:space="preserve"
       transform="matrix(0.26458333,0,0,0.26458333,-37.19043,24.336988)"
       id="text8381"
       style="font-style:normal;font-weight:normal;font-size:113.333px;line-height:0.9;font-family:sans-serif;letter-spacing:-10px;word-spacing:0px;white-space:pre;shape-inside:url(#rect8383);fill:#000000;fill-opacity:1;stroke:none"><tspan
         x="593.84961"
         y="300.67255"
         id="tspan966256"><tspan
           style="font-weight:bold;font-family:JuliaMono;-inkscape-font-specification:'JuliaMono Bold'"
           id="tspan966228">N</tspan><tspan
           dx="5"
           style="letter-spacing:-15px"
           id="tspan966230">av</tspan><tspan
           dx="4.9999924"
           style="letter-spacing:-20px"
           id="tspan966232">i</tspan><tspan
           dx="-4.9999924"
           style="letter-spacing:-15px"
           id="tspan966234">e</tspan><tspan
           dx="-4.9999924"
           style="font-weight:bold;font-family:JuliaMono;-inkscape-font-specification:'JuliaMono Bold'"
           id="tspan966236">r</tspan><tspan
           dx="9.9999771"
           style="letter-spacing:-20px"
           id="tspan966238">S</tspan><tspan
           dx="-4.9999924"
           style="letter-spacing:-15px"
           id="tspan966240">t</tspan><tspan
           dx="-4.9999924"
           style="font-weight:bold;font-family:JuliaMono;-inkscape-font-specification:'JuliaMono Bold'"
           id="tspan966242">o</tspan><tspan
           dx="10.000008"
           style="letter-spacing:-20px"
           id="tspan966244">k</tspan><tspan
           dx="-4.9999924"
           style="letter-spacing:-15px"
           id="tspan966246">e</tspan><tspan
           dx="14.999977"
           style="letter-spacing:-30px"
           id="tspan966248">s</tspan><tspan
           dx="4.9999771"
           style="letter-spacing:-35px"
           id="tspan966250">.</tspan><tspan
           dx="-19.999962"
           style="letter-spacing:-15px"
           id="tspan966252">j</tspan><tspan
           dx="-5.0000229"
           style="font-family:JuliaMono;-inkscape-font-specification:JuliaMono"
           id="tspan966254">l</tspan></tspan></text>
    <text
       xml:space="preserve"
       transform="matrix(0.26458333,0,0,0.26458333,-38.603753,-4.1242927)"
       id="text8381-8"
       style="font-style:normal;font-weight:normal;font-size:113.333px;line-height:0.9;font-family:sans-serif;letter-spacing:-10px;word-spacing:0px;white-space:pre;shape-inside:url(#rect8383-7);fill:#000000;fill-opacity:1;stroke:none"><tspan
         x="593.84961"
         y="300.67255"
         id="tspan966284"><tspan
           style="font-weight:bold;font-family:JuliaMono;-inkscape-font-specification:'JuliaMono Bold';letter-spacing:-15px"
           id="tspan966258">I</tspan><tspan
           dx="-5"
           style="font-weight:bold;font-family:JuliaMono;-inkscape-font-specification:'JuliaMono Bold'"
           id="tspan966260">n</tspan><tspan
           dx="5"
           style="font-weight:bold;font-family:JuliaMono;-inkscape-font-specification:'JuliaMono Bold';letter-spacing:-15px"
           id="tspan966262">c</tspan><tspan
           dx="-5.0000076"
           style="font-weight:bold;font-family:JuliaMono;-inkscape-font-specification:'JuliaMono Bold'"
           id="tspan966264">o</tspan><tspan
           dx="-4.9999924"
           style="font-weight:bold;font-family:JuliaMono;-inkscape-font-specification:'JuliaMono Bold';letter-spacing:-5px"
           id="tspan966266">m</tspan><tspan
           dx="10.000008"
           style="font-weight:bold;font-family:JuliaMono;-inkscape-font-specification:'JuliaMono Bold';letter-spacing:-15px"
           id="tspan966268">p</tspan><tspan
           dx="4.9999771"
           style="font-weight:bold;font-family:JuliaMono;-inkscape-font-specification:'JuliaMono Bold';letter-spacing:-20px"
           id="tspan966270">r</tspan><tspan
           dx="-4.9999924"
           style="font-weight:bold;font-family:JuliaMono;-inkscape-font-specification:'JuliaMono Bold';letter-spacing:-15px"
           id="tspan966272">e</tspan><tspan
           dx="5.0000076"
           style="font-weight:bold;font-family:JuliaMono;-inkscape-font-specification:'JuliaMono Bold';letter-spacing:-20px"
           id="tspan966274">ss</tspan><tspan
           dx="-4.9999924"
           style="font-weight:bold;font-family:JuliaMono;-inkscape-font-specification:'JuliaMono Bold';letter-spacing:-15px"
           id="tspan966276">i</tspan><tspan
           dx="9.9999771"
           style="font-weight:bold;font-family:JuliaMono;-inkscape-font-specification:'JuliaMono Bold';letter-spacing:-25px"
           id="tspan966278">b</tspan><tspan
           dx="-10.000023"
           style="font-weight:bold;font-family:JuliaMono;-inkscape-font-specification:'JuliaMono Bold';letter-spacing:-15px"
           id="tspan966280">l</tspan><tspan
           dx="-4.9999619"
           style="font-weight:bold;font-family:JuliaMono;-inkscape-font-specification:'JuliaMono Bold'"
           id="tspan966282">e</tspan></tspan></text>
    <text
       xml:space="preserve"
       style="font-style:normal;font-weight:normal;font-size:10.5833px;line-height:1.25;font-family:sans-serif;fill:#000000;fill-opacity:1;stroke:none;stroke-width:0.264583"
       x="350.37607"
       y="134.22003"
       id="text802902"><tspan
         sodipodi:role="line"
         id="tspan802900"
         style="stroke-width:0.264583"
         x="350.37607"
         y="134.22003" /></text>
  </g>
</svg>
