<?xml version="1.0" encoding="UTF-8" standalone="no"?>
<!-- Created with Inkscape (http://www.inkscape.org/) -->

<svg
   width="220mm"
   height="109.99999mm"
   viewBox="0 0 220 109.99999"
   version="1.1"
   id="svg5"
   inkscape:version="1.2.2 (b0a8486541, 2022-12-01)"
   sodipodi:docname="resolution.svg"
   xmlns:inkscape="http://www.inkscape.org/namespaces/inkscape"
   xmlns:sodipodi="http://sodipodi.sourceforge.net/DTD/sodipodi-0.dtd"
   xmlns="http://www.w3.org/2000/svg"
   xmlns:svg="http://www.w3.org/2000/svg">
  <sodipodi:namedview
     id="namedview7"
     pagecolor="#ffffff"
     bordercolor="#000000"
     borderopacity="0.25"
     inkscape:showpageshadow="2"
     inkscape:pageopacity="0.0"
     inkscape:pagecheckerboard="0"
     inkscape:deskcolor="#d1d1d1"
     inkscape:document-units="mm"
     showgrid="false"
     inkscape:zoom="2.587745"
     inkscape:cx="401.31466"
     inkscape:cy="267.02786"
     inkscape:window-width="3760"
     inkscape:window-height="2150"
     inkscape:window-x="0"
     inkscape:window-y="0"
     inkscape:window-maximized="1"
     inkscape:current-layer="layer1" />
  <defs
     id="defs2" />
  <g
     inkscape:label="Layer 1"
     inkscape:groupmode="layer"
     id="layer1">
    <path
       sodipodi:type="spiral"
       style="fill:none;fill-rule:evenodd;stroke:#389826;stroke-width:1.53391278;stroke-dasharray:none;stroke-opacity:1"
       id="path1442-3-7"
       sodipodi:cx="19.093813"
       sodipodi:cy="18.173506"
       sodipodi:expansion="1"
       sodipodi:revolution="2.6097786"
       sodipodi:radius="11.063249"
       sodipodi:argument="-17.388845"
       sodipodi:t0="0.3682422"
       d="m 20.509642,21.993524 c -2.240519,1.28003 -5.069192,0.162809 -6.229577,-2.035879 -1.47106,-2.787356 -0.07595,-6.223691 2.661299,-7.591616 3.332144,-1.665221 7.380202,0.0101 8.953656,3.286718 1.861202,3.875839 -0.09564,8.537955 -3.912138,10.315695 -4.418885,2.058336 -9.69653,-0.180854 -11.677735,-4.537557 -2.2562412,-4.961513 0.265834,-10.855677 5.162977,-13.0397744 3.099263,-1.3822535 6.747029,-1.1512721 9.685594,0.5264231"
       transform="matrix(1.3038551,0,0,1.3038551,11.959844,51.942266)" />
    <path
       sodipodi:type="spiral"
       style="fill:none;fill-rule:evenodd;stroke:#4063d8;stroke-width:0.7928;stroke-dasharray:none;stroke-opacity:1"
       id="path1442-3-7-5"
       sodipodi:cx="18.05225"
       sodipodi:cy="17.72551"
       sodipodi:expansion="1"
       sodipodi:revolution="2.446023"
       sodipodi:radius="10.369058"
       sodipodi:argument="-17.388845"
       sodipodi:t0="0.36536294"
       d="m 20.711414,20.423907 c -1.403231,1.980261 -4.262471,2.124007 -6.112411,0.704642 -2.37822,-1.824686 -2.51829,-5.350243 -0.693668,-7.611137 2.242363,-2.778518 6.439758,-2.914373 9.109863,-0.682693 3.180195,2.658016 3.311551,7.530319 0.671717,10.608589 -3.07246,3.582749 -8.621559,3.709444 -12.107313,0.660742 C 7.593711,20.617921 7.4717749,14.390782 10.929834,10.498011 11.678497,9.6552338 12.567845,8.9396467 13.549226,8.3852671"
       transform="matrix(3.9452463,0,0,3.9695953,98.599487,-13.866847)" />
    <path
       style="fill:none;stroke:#000000;stroke-width:0.96257;stroke-dasharray:none"
       d="M 15.481285,5 V 105"
       id="path353" />
    <path
       style="fill:none;stroke:#000000;stroke-width:0.96257;stroke-dasharray:none"
       d="m 35.481285,5 v 99.99999"
       id="path353-3" />
    <path
       style="fill:none;stroke:#000000;stroke-width:0.96257;stroke-dasharray:none"
       d="m 55.481285,5 v 99.99999"
       id="path353-3-6" />
    <path
       style="fill:none;stroke:#000000;stroke-width:0.96257;stroke-dasharray:none"
       d="m 75.481285,5 v 99.99999"
       id="path353-3-6-7" />
    <path
       style="fill:none;stroke:#000000;stroke-width:0.96257;stroke-dasharray:none"
       d="M 95.481285,5 V 105"
       id="path353-3-6-7-5" />
    <path
       style="fill:none;stroke:#000000;stroke-width:0.952332;stroke-dasharray:none"
       d="M 5,15.476166 H 105"
       id="path1105" />
    <path
       style="fill:none;stroke:#000000;stroke-width:0.952332;stroke-dasharray:none"
       d="M 5,35.476166 H 105.00001"
       id="path1105-3" />
    <path
       style="fill:none;stroke:#000000;stroke-width:0.952332;stroke-dasharray:none"
       d="M 5,55.476166 H 105.00002"
       id="path1105-3-5" />
    <path
       style="fill:none;stroke:#000000;stroke-width:0.952332;stroke-dasharray:none"
       d="M 5,75.476166 H 105.00002"
       id="path1105-3-5-6" />
    <path
       style="fill:none;stroke:#000000;stroke-width:0.952332;stroke-dasharray:none"
       d="M 5,95.47617 H 105.00002"
       id="path1105-3-5-6-2" />
    <path
       style="fill:none;stroke:#000000;stroke-width:0.96257;stroke-dasharray:none"
       d="M 125.48129,5 V 105"
       id="path353-9" />
    <path
       style="fill:none;stroke:#000000;stroke-width:0.96257;stroke-dasharray:none"
       d="M 135.48129,5 V 105.00001"
       id="path353-9-6" />
    <path
       style="fill:none;stroke:#000000;stroke-width:0.96257;stroke-dasharray:none"
       d="M 155.48129,5 V 105"
       id="path353-9-6-1" />
    <path
       style="fill:none;stroke:#000000;stroke-width:0.96257;stroke-dasharray:none"
       d="M 175.48129,5 V 105"
       id="path353-9-6-1-8" />
    <path
       style="fill:none;stroke:#000000;stroke-width:0.96257;stroke-dasharray:none"
       d="m 195.48129,5 v 99.99999"
       id="path353-9-6-1-8-7" />
    <path
       style="fill:none;stroke:#000000;stroke-width:0.96257;stroke-dasharray:none"
       d="m 145.48129,5 v 99.99999"
       id="path353-3-1" />
    <path
       style="fill:none;stroke:#000000;stroke-width:0.96257;stroke-dasharray:none"
       d="m 165.48129,5 v 99.99999"
       id="path353-3-6-2" />
    <path
       style="fill:none;stroke:#000000;stroke-width:0.96257;stroke-dasharray:none"
       d="m 185.48129,5 v 99.99999"
       id="path353-3-6-7-7" />
    <path
       style="fill:none;stroke:#000000;stroke-width:0.96257;stroke-dasharray:none"
       d="M 205.48129,5 V 105"
       id="path353-3-6-7-5-0" />
    <path
       style="fill:none;stroke:#000000;stroke-width:0.952332;stroke-dasharray:none"
       d="M 115,15.476166 H 215"
       id="path1105-9" />
    <path
       style="fill:none;stroke:#000000;stroke-width:0.952332;stroke-dasharray:none"
       d="M 115,35.476166 H 215.00001"
       id="path1105-3-3" />
    <path
       style="fill:none;stroke:#000000;stroke-width:0.952332;stroke-dasharray:none"
       d="M 115,55.476166 H 215.00002"
       id="path1105-3-5-60" />
    <path
       style="fill:none;stroke:#000000;stroke-width:0.952332;stroke-dasharray:none"
       d="M 115,75.476166 H 215.00002"
       id="path1105-3-5-6-6" />
    <path
       style="fill:none;stroke:#000000;stroke-width:0.952332;stroke-dasharray:none"
       d="M 115,25.476166 H 215.00001"
       id="path1105-9-9" />
    <path
       style="fill:none;stroke:#000000;stroke-width:0.952332;stroke-dasharray:none"
       d="M 115,45.476166 H 215.00002"
       id="path1105-3-3-2" />
    <path
       style="fill:none;stroke:#000000;stroke-width:0.952332;stroke-dasharray:none"
       d="M 115,65.476166 H 215.00003"
       id="path1105-3-5-60-0" />
    <path
       style="fill:none;stroke:#000000;stroke-width:0.952332;stroke-dasharray:none"
       d="M 115,85.476163 H 215.00003"
       id="path1105-3-5-6-6-2" />
    <path
       style="fill:none;stroke:#000000;stroke-width:0.952332;stroke-dasharray:none"
       d="M 115,95.47617 H 215.00002"
       id="path1105-3-5-6-2-2" />
    <path
       sodipodi:type="spiral"
       style="fill:none;fill-rule:evenodd;stroke:#cb3c33;stroke-width:1;stroke-dasharray:none;stroke-opacity:1"
       id="path1442"
       sodipodi:cx="19.093813"
       sodipodi:cy="18.173506"
       sodipodi:expansion="1"
       sodipodi:revolution="1.9615993"
       sodipodi:radius="8.3155184"
       sodipodi:argument="-17.388845"
       sodipodi:t0="0.19395575"
       d="m 17.870317,17.122641 c 0.394973,-1.218575 1.92731,-1.493705 2.964878,-0.976583 1.639486,0.817117 1.9655,2.967903 1.090017,4.459346 -1.213417,2.067136 -4.015972,2.444926 -5.953814,1.203452 -2.498554,-1.600692 -2.927981,-5.067161 -1.316887,-7.448282 1.983861,-2.932051 6.119985,-3.413033 8.94275,-1.430321 3.366786,2.364832 3.899292,7.173784 1.543756,10.437217 -0.81414,1.127935 -1.922861,2.031033 -3.185177,2.61351"
       transform="translate(5.2578351,6.8469035)" />
    <path
       sodipodi:type="spiral"
       style="fill:none;fill-rule:evenodd;stroke:#9558b2;stroke-width:1;stroke-dasharray:none;stroke-opacity:1"
       id="path1442-3"
       sodipodi:cx="20.015375"
       sodipodi:cy="19.64929"
       sodipodi:expansion="1"
       sodipodi:revolution="1.7000488"
       sodipodi:radius="7.2067652"
       sodipodi:argument="-17.388845"
       sodipodi:t0="0.12620525"
       d="m 19.155746,19.946419 c -0.777584,-0.531719 -0.39907,-1.677996 0.216284,-2.158399 1.153509,-0.900537 2.797913,-0.278594 3.506257,0.871709 1.059716,1.720907 0.162606,3.939056 -1.527136,4.854114 -2.276101,1.232594 -5.087779,0.04893 -6.20197,-2.182561 -1.411528,-2.826995 0.06346,-6.240108 2.837987,-7.549827 3.141937,-1.483154 6.913219,-0.05609 8.597,2.903307"
       transform="translate(45.336218,26.847896)" />
  </g>
</svg>
