<?xml version="1.0" encoding="UTF-8" standalone="no"?>
<!-- Created with Inkscape (http://www.inkscape.org/) -->

<svg
   width="1280"
   height="640"
   viewBox="0 0 338.66667 169.33333"
   version="1.1"
   id="svg1823"
   inkscape:version="1.1.1 (3bf5ae0d25, 2021-09-20, custom)"
   sodipodi:docname="logo_text_dots.svg"
   xmlns:inkscape="http://www.inkscape.org/namespaces/inkscape"
   xmlns:sodipodi="http://sodipodi.sourceforge.net/DTD/sodipodi-0.dtd"
   xmlns="http://www.w3.org/2000/svg"
   xmlns:svg="http://www.w3.org/2000/svg">
  <sodipodi:namedview
     id="namedview1825"
     pagecolor="#ffffff"
     bordercolor="#666666"
     borderopacity="1.0"
     inkscape:pageshadow="2"
     inkscape:pageopacity="0.0"
     inkscape:pagecheckerboard="0"
     inkscape:document-units="px"
     showgrid="false"
     units="px"
     inkscape:zoom="0.73228114"
     inkscape:cx="497.75964"
     inkscape:cy="337.30214"
     inkscape:window-width="1906"
     inkscape:window-height="1048"
     inkscape:window-x="1926"
     inkscape:window-y="24"
     inkscape:window-maximized="1"
     inkscape:current-layer="text8381" />
  <defs
     id="defs1820">
    <rect
       x="593.84877"
       y="215.86327"
       width="796.82592"
       height="113.64612"
       id="rect8383" />
    <inkscape:path-effect
       effect="spiro"
       id="path-effect1081"
       is_visible="true"
       lpeversion="1" />
    <inkscape:path-effect
       effect="spiro"
       id="path-effect1077"
       is_visible="true"
       lpeversion="1" />
    <inkscape:path-effect
       effect="spiro"
       id="path-effect1073"
       is_visible="true"
       lpeversion="1" />
    <inkscape:path-effect
       effect="spiro"
       id="path-effect1069"
       is_visible="true"
       lpeversion="1" />
    <rect
       x="593.84875"
       y="215.86327"
       width="773.09534"
       height="116.96974"
       id="rect8383-7" />
  </defs>
  <g
     inkscape:label="Слой 1"
     inkscape:groupmode="layer"
     id="layer1">
    <path
       style="fill:none;stroke:#389826;stroke-width:7.80017;stroke-linecap:round;stroke-linejoin:miter;stroke-miterlimit:4;stroke-dasharray:none;stroke-opacity:1"
       d="m 16.784213,76.87941 c 12.179117,1.080346 23.961482,6.235135 33.020738,14.446586 3.229635,2.927391 6.151671,6.277308 8.057195,10.197654 1.905525,3.92035 2.736182,8.46201 1.735347,12.70447 -1.022867,4.33585 -3.952224,8.14184 -7.767778,10.44128 -3.815553,2.29944 -8.456421,3.11633 -12.867187,2.49101 -2.657267,-0.37672 -5.251716,-1.26552 -7.527309,-2.68843 -2.275593,-1.4229 -4.225535,-3.38625 -5.542353,-5.72484 -1.316819,-2.33858 -1.986825,-5.05314 -1.805797,-7.73086 0.181027,-2.67773 1.228326,-5.30581 3.016129,-7.3075 2.42524,-2.71538 6.200867,-4.160562 9.819354,-3.758505 3.618487,0.402055 6.984788,2.640785 8.754811,5.822315"
       id="path1067"
       inkscape:path-effect="#path-effect1069"
       inkscape:original-d="m 16.784213,76.87941 c 11.695051,2.08e-4 21.326099,14.446787 33.020738,14.446586 11.694639,-2.14e-4 6.353095,19.462674 9.792542,22.902124 3.439456,3.43946 -13.755436,3.98938 -20.634965,12.93229 -6.879528,8.94291 -7.731534,-15.19624 -11.85933,-23.45163 -4.127799,-8.255409 11.695051,1.37607 18.574165,2.06381"
       sodipodi:nodetypes="cssssc" />
    <path
       style="fill:none;stroke:#cb3c33;stroke-width:7.80017;stroke-linecap:round;stroke-linejoin:miter;stroke-miterlimit:4;stroke-dasharray:none;stroke-opacity:1"
       d="m 16.784213,41.794875 c 12.060228,10.822982 26.292509,19.215624 41.60033,24.531322 6.569209,2.281182 13.335985,4.001716 20.207083,5.072374 3.690653,0.575079 7.437853,0.96322 11.159504,0.64549 3.72165,-0.317731 7.438156,-1.373944 10.51774,-3.48766 3.43111,-2.354991 5.94984,-5.998896 6.96262,-10.035328 1.01278,-4.036431 0.51551,-8.429467 -1.35342,-12.147746 -1.48837,-2.961151 -3.81231,-5.476479 -6.57005,-7.314562 -2.757737,-1.838084 -5.939429,-3.007934 -9.211047,-3.537257 -3.187593,-0.515729 -6.525906,-0.41962 -9.554335,0.7008 -3.028429,1.12042 -5.719223,3.336321 -7.029632,6.287516 -1.052296,2.369893 -1.170337,5.10142 -0.547978,7.618638 0.622359,2.517218 1.955034,4.826107 3.650526,6.788 1.259814,1.457761 2.7336,2.745192 4.417431,3.681628 1.68383,0.936437 3.583707,1.514046 5.510235,1.540268 1.926528,0.02622 3.876549,-0.516108 5.440519,-1.641361 1.56397,-1.125254 2.715823,-2.846998 3.035054,-4.747074 0.363644,-2.164424 -0.403579,-4.487334 -1.984815,-6.009393 -1.581236,-1.522059 -3.931707,-2.200165 -6.080694,-1.754267"
       id="path1071"
       inkscape:path-effect="#path-effect1073"
       inkscape:original-d="m 16.784213,41.794875 c 10.318985,14.446574 30.956945,26.82935 41.60033,24.531322 16.810714,-3.629627 9.200376,6.448445 20.207083,5.072374 11.006718,-1.376071 18.925732,3.349425 21.677244,-2.84217 2.75153,-6.191595 9.04906,-20.807004 5.6092,-22.183074 -3.43987,-1.376071 -6.837784,-12.915408 -15.781097,-10.851819 -8.943331,2.063591 -16.583753,2.86093 -16.583967,6.988316 -2.01e-4,4.127385 -2.329195,15.290909 3.102548,14.406638 4.146339,-0.675013 14.963775,0.209532 18.403239,-1.166539 3.439446,-1.376072 -3.937718,-5.699658 -8.065509,-7.76366"
       sodipodi:nodetypes="cssssssssc" />
    <path
       style="fill:none;stroke:#9558b2;stroke-width:7.80017;stroke-linecap:round;stroke-linejoin:miter;stroke-miterlimit:4;stroke-dasharray:none;stroke-opacity:1"
       d="m 16.784213,56.241449 c 13.503048,14.878392 33.042885,24.111463 53.110993,25.096299 6.754342,0.331467 13.674057,-0.211078 20.146521,1.748059 5.09283,1.541538 9.715725,4.643614 13.000283,8.829895 3.28455,4.186282 5.20252,9.444758 5.29249,14.765018 0.0661,3.91108 -0.85839,7.86662 -2.86383,11.22505 -2.00545,3.35844 -5.11684,6.08841 -8.795161,7.41913 -4.266108,1.54337 -9.143413,1.12783 -13.22121,-0.86044 -4.077797,-1.98827 -7.351053,-5.4762 -9.346571,-9.55046 -1.47759,-3.0168 -2.285672,-6.41339 -1.946239,-9.75542 0.339433,-3.34202 1.894314,-6.612716 4.513755,-8.715781 2.2809,-1.831262 5.326255,-2.701767 8.220484,-2.278136 2.894229,0.423632 5.585954,2.15605 7.107443,4.654269 1.292747,2.122638 1.722387,4.754318 1.171839,7.177878 -0.550548,2.42357 -2.075,4.61135 -4.157924,5.96715"
       id="path1075"
       inkscape:path-effect="#path-effect1077"
       inkscape:original-d="m 16.784213,56.241449 c 13.758845,2.05e-4 39.352553,25.096514 53.110993,25.096299 13.758432,-2e-4 17.394981,1.060335 20.146521,1.748059 2.751511,0.687723 16.441753,22.452483 18.292773,23.594913 2.90593,1.79349 -8.907064,10.38919 -11.658991,18.64418 -2.751941,8.25497 -15.688251,-9.03483 -22.567781,-10.4109 -6.879526,-1.37607 1.191853,-11.59166 2.567516,-18.471201 1.375649,-6.87953 9.824674,0.312545 15.327927,2.376133 5.503252,2.063608 -2.297959,10.393518 -2.986085,13.145028"
       sodipodi:nodetypes="csssssssc" />
    <path
       style="fill:none;stroke:#4063d8;stroke-width:7.80017;stroke-linecap:round;stroke-linejoin:miter;stroke-miterlimit:4;stroke-dasharray:none;stroke-opacity:1"
       d="m 27.103198,35.603485 c 3.408012,1.563424 6.595899,3.605777 9.440713,6.048291 1.686845,1.448299 3.255928,3.038044 5.03765,4.367888 3.187349,2.378977 7.099281,3.884514 11.076156,3.828026 2.005225,-0.02848 4.038403,-0.464889 5.749188,-1.511289 1.710786,-1.046399 3.069812,-2.746275 3.457046,-4.713961 0.24408,-1.240262 0.09539,-2.554825 -0.419554,-3.709234 -0.514943,-1.154409 -1.393743,-2.143295 -2.479664,-2.790289 -1.085921,-0.646994 -2.373914,-0.949087 -3.634262,-0.8524 -1.260348,0.09669 -2.487191,0.591705 -3.461718,1.396765"
       id="path1079"
       inkscape:path-effect="#path-effect1081"
       inkscape:original-d="m 27.103198,35.603485 c 4.127586,-6.191388 -5.716609,7.331141 9.440713,6.048291 8.253999,-0.698584 -4.593194,9.183623 5.03765,4.367888 9.630846,-4.815729 17.910232,3.037792 11.076156,3.828026 -8.885124,1.027401 13.334033,-9.664704 9.206234,-6.22525 -4.127798,3.439454 -14.12259,-7.330816 -9.995198,-5.955158"
       sodipodi:nodetypes="cssssc" />
    <g
       aria-label="NavierStokes.jl"
       transform="matrix(0.26458333,0,0,0.26458333,-37.19043,24.336988)"
       id="text8381"
       style="font-size:113.333px;line-height:0.9;letter-spacing:-10px;word-spacing:0px;white-space:pre;shape-inside:url(#rect8383)">
      <path
         d="m 615.83621,300.67255 h -14.05329 v -82.16642 h 18.35995 l 16.09328,47.14653 3.28666,9.9733 v -57.11983 h 14.16662 v 82.16642 h -17.22661 l -20.62661,-56.09983 z"
         style="font-weight:bold;font-family:JuliaMono;-inkscape-font-specification:'JuliaMono Bold'"
         id="path966385" />
      <path
         d="m 679.6727,301.80588 q -9.85997,0 -15.01662,-4.92998 -5.15665,-4.92999 -5.15665,-13.42996 0,-11.6733 8.83997,-16.31995 8.83997,-4.64666 22.09994,-4.64666 h 6.91331 v -2.49332 q 0,-2.55 -1.07666,-5.09999 -1.07667,-2.60666 -3.68333,-4.41998 -2.60666,-1.81333 -6.96998,-1.81333 -4.24998,0 -8.15997,1.75666 -3.85332,1.69999 -7.64998,4.58999 l -6.79998,-8.61331 q 5.21332,-4.36332 10.76663,-6.57332 5.60999,-2.26666 13.25997,-2.26666 12.97662,0 18.47327,6.17665 5.55332,6.17665 5.55332,17.05662 v 21.9866 q 0,7.13998 1.13333,17.90661 h -14.05329 q -0.39667,-3.45665 -0.56667,-8.04664 -5.26998,9.17997 -17.90661,9.17997 z m 3.39999,-10.19997 q 7.19665,0 10.6533,-5.04331 3.51333,-5.04332 3.51333,-14.2233 h -4.64666 q -10.36997,0 -15.58328,2.38 -5.15666,2.32332 -5.15666,7.87664 0,4.58999 3.22999,6.79998 3.28666,2.20999 7.98998,2.20999 z"
         style="letter-spacing:-15px"
         id="path966387" />
      <path
         d="M 746.89583,300.67255 H 730.91588 L 712.1026,237.99941 h 15.07329 l 11.89996,44.76653 12.23997,-44.76653 h 14.27996 z"
         style="letter-spacing:-15px"
         id="path966389" />
      <path
         style="letter-spacing:-20px"
         d="m 799.499,238.3394 v 52.13318 h 15.41329 v 10.19997 h -45.10654 v -10.19997 h 15.86662 v -42.2732 h -16.88661 v -9.85998 z"
         id="path967529" />
      <path
         style="letter-spacing:-20px;fill:#389826;fill-opacity:1"
         d="m 790.77236,228.3661 c -3.2111,0 -5.51554,-0.68 -6.91332,-2.03999 -1.35999,-1.39777 -2.03999,-3.70221 -2.03999,-6.91332 0,-3.28665 0.68,-5.59109 2.03999,-6.91331 1.36,-1.35999 3.66444,-2.03999 6.91332,-2.03999 3.28665,0 5.59109,0.68 6.91331,2.03999 1.35999,1.32222 2.03999,3.62666 2.03999,6.91331 0,3.24888 -0.68,5.55332 -2.03999,6.91332 -1.32222,1.35999 -3.62666,2.03999 -6.91331,2.03999 z"
         id="path966391" />
      <path
         d="m 841.77553,301.80588 q -7.30998,0 -13.93996,-3.62665 -6.62998,-3.68332 -10.8233,-10.87997 -4.13666,-7.25331 -4.13666,-17.45328 0,-9.57664 3.45666,-16.94329 3.45666,-7.42331 9.80331,-11.50329 6.40331,-4.07999 14.95995,-4.07999 13.65663,0 19.66328,9.34997 6.06331,9.34997 6.06331,26.57659 h -40.34655 q 0.34,8.38664 4.58999,12.69329 4.30666,4.30666 11.61663,4.30666 5.32665,0 10.25664,-1.53 4.98665,-1.52999 7.08331,-3.45665 l 5.21332,9.51997 q -2.20999,1.75666 -6.06331,3.39999 -3.79666,1.64333 -8.44331,2.60666 -4.58999,1.01999 -8.95331,1.01999 z m 12.46663,-38.98655 q 0,-4.24999 -1.7,-7.59331 -1.69999,-3.39999 -4.70331,-5.32665 -3.00333,-1.92666 -6.74332,-1.92666 -3.79665,0 -7.02664,1.86999 -3.22999,1.87 -5.15666,5.26999 -1.86999,3.34332 -1.86999,7.70664 z"
         style="letter-spacing:-15px"
         id="path966393" />
      <path
         d="m 875.39543,300.67255 0.0567,-19.83327 q 0.0567,-6.28998 0.0567,-16.09329 0,-6.00665 -0.34,-8.89664 -0.34,-2.94666 -1.13333,-7.30998 h -9.29331 V 238.3394 h 20.56994 l 2.09666,10.53997 q 2.66333,-6.74331 7.53665,-9.2933 4.87332,-2.60666 10.1433,-2.60666 3.62666,0 8.27331,2.15333 4.70332,2.15332 7.59331,4.98665 l -7.81998,9.2933 q -1.86999,-1.75666 -4.47665,-2.77666 -2.54999,-1.07666 -6.40332,-1.07666 -3.56998,0 -6.57331,2.49333 -2.94666,2.49332 -4.70332,7.36664 -1.75666,4.81665 -1.75666,11.6733 v 29.57991 z"
         style="font-weight:bold;font-family:JuliaMono;-inkscape-font-specification:'JuliaMono Bold'"
         id="path966395" />
      <path
         d="m 930.67526,278.00595 q 5.09998,5.43999 9.91664,8.32998 4.87332,2.88999 9.68997,2.88999 6.68664,0 10.70997,-2.88999 4.02332,-2.94666 4.02332,-8.66997 0,-3.51333 -1.75666,-5.66665 -1.75667,-2.15333 -4.53332,-3.39999 -2.72,-1.30333 -7.98998,-3.06 -0.90666,-0.28333 -2.94666,-0.96333 -2.03999,-0.73666 -3.73999,-1.41666 -6.17665,-2.43666 -10.6533,-5.32665 -4.47665,-2.94666 -7.19664,-7.25331 -2.66333,-4.30666 -2.66333,-10.19997 0,-6.96998 3.68332,-12.1833 3.68332,-5.21332 10.19997,-7.98998 6.51665,-2.83332 14.78996,-2.83332 8.44331,0 14.50662,3.00332 6.11998,2.94666 11.89997,9.12331 l -9.17998,8.27331 q -4.24998,-4.13666 -8.4433,-6.23332 -4.19332,-2.15332 -9.46331,-2.15332 -3.79665,0 -7.02665,1.18999 -3.17332,1.13333 -5.09998,3.51333 -1.92666,2.37999 -1.92666,5.83665 0,3.62665 2.32333,6.11998 2.32332,2.43666 5.77998,4.02332 3.51332,1.53 9.57664,3.62666 7.76331,2.66332 12.63663,5.04331 4.87332,2.38 8.27331,6.74332 3.45665,4.36332 3.45665,11.1633 0,7.59331 -3.62665,13.25996 -3.62666,5.66665 -10.19997,8.72664 -6.57332,3.05999 -15.18663,3.05999 -9.2933,0 -16.43328,-4.13665 -7.13998,-4.19332 -12.91996,-11.1633 z"
         style="letter-spacing:-20px"
         id="path966397" />
      <path
         d="m 1008.8217,301.35255 q -9.85999,0 -14.16664,-3.85332 -4.30665,-3.90999 -4.30665,-11.6733 V 249.33271 H 973.34846 V 238.3394 h 16.99995 v -22.77993 h 13.71329 v 22.77993 h 17.5666 v 10.99331 h -17.5666 v 30.48657 q 0,4.07999 0.7933,6.28998 0.85,2.21 2.7767,3.11666 1.9833,0.90667 5.61,0.90667 1.9266,0 5.44,-0.45334 3.5699,-0.45333 5.6666,-0.90666 v 10.87997 q -2.38,0.62333 -7.1966,1.13333 -4.76,0.56666 -8.33,0.56666 z"
         style="letter-spacing:-15px"
         id="path966399" />
      <path
         d="m 1051.8482,301.80588 q -8.5566,0 -14.5633,-3.85332 -6.0066,-3.90999 -9.1233,-11.1633 -3.06,-7.30998 -3.06,-17.39661 0,-9.80331 3.2867,-17.05662 3.2867,-7.30998 9.2933,-11.21997 6.0633,-3.90999 14.1666,-3.90999 8.1033,0 14.11,3.90999 6.0633,3.85332 9.35,11.1633 3.2866,7.25332 3.2866,17.11329 0,10.02997 -3.1166,17.33995 -3.06,7.25331 -9.0667,11.1633 -6.0066,3.90998 -14.5633,3.90998 z m -0.2266,-12.01329 q 6.3466,0 9.8033,-5.32665 3.4566,-5.38332 3.4566,-14.84663 0,-6.23331 -1.5866,-10.8233 -1.5867,-4.64665 -4.59,-7.08331 -3.0034,-2.49333 -7.0833,-2.49333 -3.91,0 -6.8,2.49333 -2.89,2.43666 -4.4767,7.08331 -1.53,4.58999 -1.53,10.8233 0,9.46331 3.3434,14.84663 3.3999,5.32665 9.4633,5.32665 z"
         style="font-weight:bold;font-family:JuliaMono;-inkscape-font-specification:'JuliaMono Bold'"
         id="path966401" />
      <path
         d="m 1110.8114,269.39265 24.9333,31.2799 h -15.64 l -22.7799,-27.93658 v 27.93658 h -13.3733 v -89.53307 h 13.3733 v 55.47651 l 20.7399,-28.27659 h 15.4133 z"
         style="letter-spacing:-20px"
         id="path966403" />
      <path
         d="m 1159.7746,301.80588 q -7.31,0 -13.94,-3.62665 -6.63,-3.68332 -10.8233,-10.87997 -4.1366,-7.25331 -4.1366,-17.45328 0,-9.57664 3.4566,-16.94329 3.4567,-7.42331 9.8033,-11.50329 6.4033,-4.07999 14.96,-4.07999 13.6566,0 19.6633,9.34997 6.0633,9.34997 6.0633,26.57659 h -40.3466 q 0.34,8.38664 4.59,12.69329 4.3067,4.30666 11.6166,4.30666 5.3267,0 10.2567,-1.53 4.9866,-1.52999 7.0833,-3.45665 l 5.2133,9.51997 q -2.21,1.75666 -6.0633,3.39999 -3.7967,1.64333 -8.4433,2.60666 -4.59,1.01999 -8.9533,1.01999 z m 12.4666,-38.98655 q 0,-4.24999 -1.7,-7.59331 -1.7,-3.39999 -4.7033,-5.32665 -3.0033,-1.92666 -6.7433,-1.92666 -3.7967,0 -7.0267,1.86999 -3.23,1.87 -5.1566,5.26999 -1.87,3.34332 -1.87,7.70664 z"
         style="letter-spacing:-15px"
         id="path966405" />
      <path
         d="m 1211.3577,301.46589 q -8.5566,0 -14.5633,-2.72 -5.9499,-2.77666 -10.9366,-8.6133 l 7.5933,-8.38665 q 3.0033,2.83333 5.4967,4.58999 2.4933,1.75666 5.6666,2.83332 3.1733,1.07667 7.1967,1.07667 2.8333,0 5.4966,-0.79333 2.6633,-0.85 4.3633,-2.49333 1.7,-1.64333 1.7,-4.07999 0,-2.15332 -1.4733,-3.51332 -1.4167,-1.41666 -3.74,-2.26666 -2.3233,-0.85 -6.97,-2.09666 l -3.57,-0.96333 q -6.4599,-1.7 -10.7666,-3.79666 -4.3066,-2.09666 -6.7433,-5.49665 -2.4367,-3.45665 -2.4367,-8.6133 0,-5.60999 2.9467,-9.85998 2.9467,-4.30665 8.2733,-6.68664 5.3833,-2.38 12.3533,-2.38 7.3666,0 12.92,2.09666 5.61,2.04 9.6333,6.17665 l -7.7067,8.27331 q -2.9466,-2.43666 -6.5733,-3.68332 -3.57,-1.30333 -7.5933,-1.30333 -3.3433,0 -6.0066,0.90666 -2.6067,0.85 -4.08,2.43666 -1.4734,1.53 -1.4734,3.56999 0,2.49333 2.1534,4.19332 2.1533,1.7 5.1566,2.72 3.0033,1.01999 7.8767,2.26666 1.4166,0.34 4.6466,1.24666 6.63,2.03999 11.1066,5.94998 4.5334,3.85332 4.5334,11.1633 0,9.12331 -6.7433,13.7133 -6.6867,4.53332 -17.7367,4.53332 z"
         style="letter-spacing:-30px"
         id="path966407" />
      <path
         d="m 1248.8476,302.93921 q -4.8167,0 -7.65,-2.77665 -2.7767,-2.83333 -2.7767,-7.64998 0,-4.87332 2.7767,-7.64998 2.8333,-2.77666 7.65,-2.77666 4.8733,0 7.6499,2.77666 2.7767,2.77666 2.7767,7.64998 0,4.81665 -2.7767,7.64998 -2.7766,2.77665 -7.6499,2.77665 z"
         style="letter-spacing:-35px;fill:#9558b2;fill-opacity:1"
         id="path966409" />
      <path
         style="letter-spacing:-15px"
         d="m 1270.4008,300.55922 q 0,6.91331 3.06,10.70997 3.1166,3.79666 8.6133,3.79666 3.4567,0 5.95,-1.98333 2.55,-1.98333 3.8533,-5.09999 1.3033,-3.11665 1.3033,-6.28998 v -55.75983 h -20.8532 v -7.59332 h 30.3732 v 63.12649 q 0,6.68664 -2.55,11.61663 -2.55,4.98665 -7.1966,7.59331 -4.59,2.66332 -10.7667,2.66332 -6.2333,0 -11.0499,-2.71999 -4.76,-2.66332 -7.48,-7.81997 -2.6633,-5.15666 -2.6633,-12.23997 z"
         id="path967883" />
      <path
         style="letter-spacing:-15px;fill:#cb3c33;fill-opacity:1"
         d="m 1295.2207,225.87277 q -4.08,0 -5.78,-1.69999 -1.6999,-1.7 -1.6999,-5.77998 0,-4.07999 1.6999,-5.77999 1.7,-1.69999 5.78,-1.69999 4.08,0 5.78,1.69999 1.7,1.7 1.7,5.77999 0,4.07998 -1.7,5.77998 -1.7,1.69999 -5.78,1.69999 z"
         id="path966411" />
      <path
         d="m 1347.3705,302.03255 q -7.0833,0 -11.2766,-1.86999 -4.1366,-1.92667 -6.0633,-6.11999 -1.9267,-4.24998 -1.9267,-11.38996 v -64.14648 h -19.8332 v -7.36665 h 29.3532 v 71.17313 q 0,4.75998 1.19,7.19664 1.2467,2.38 3.74,3.22999 2.4933,0.79334 6.97,0.79334 2.4933,0 5.78,-0.79334 3.3433,-0.79333 5.8933,-2.15332 v 8.9533 q -4.1367,1.41667 -7.0833,1.92667 -2.9467,0.56666 -6.7434,0.56666 z"
         style="font-family:JuliaMono;-inkscape-font-specification:JuliaMono"
         id="path966413" />
    </g>
    <g
       aria-label="Incompressible"
       transform="matrix(0.26458333,0,0,0.26458333,-38.603753,-4.1242927)"
       id="text8381-8"
       style="font-size:113.333px;line-height:0.9;letter-spacing:-10px;word-spacing:0px;white-space:pre;shape-inside:url(#rect8383-7)">
      <path
         d="m 648.47612,300.67255 h -41.36655 v -11.67329 h 13.59996 V 230.17943 H 608.2429 v -11.6733 h 39.09989 v 11.6733 h -12.12664 v 58.81983 h 13.25997 z"
         style="letter-spacing:-15px"
         id="path966416" />
      <path
         d="m 655.63276,252.84603 q 0,-3.17333 -0.17,-6.45998 -0.17,-3.34333 -0.39667,-6.45998 l -0.11333,-1.7 h 13.37329 l 0.79333,9.17997 q 3.17333,-5.15665 7.76331,-7.64997 4.58999,-2.55 10.82331,-2.55 6.06331,0 10.3133,2.89 4.30665,2.88999 6.51665,8.32997 2.20999,5.43999 2.20999,13.0333 v 39.21321 h -14.05329 v -34.67989 q 0,-7.47998 -2.43666,-12.6933 -2.37999,-5.21332 -8.66998,-5.21332 -6.62998,0 -9.51997,6.28998 -2.83332,6.28999 -2.83332,15.24329 v 31.05324 h -13.59996 z"
         id="path966418" />
      <path
         d="m 741.96585,301.69255 q -8.72664,0 -15.58329,-3.79665 -6.85665,-3.85333 -10.76664,-11.10664 -3.90998,-7.25331 -3.90998,-17.28328 0,-9.63331 3.79665,-16.88662 3.85332,-7.25331 10.87997,-11.21996 7.02664,-3.96666 16.37662,-3.96666 8.15997,0 13.59996,3.05999 5.43998,3.05999 9.06664,8.04664 l -8.72664,8.15998 q -3.17333,-3.56999 -6.23332,-5.38332 -3.05999,-1.86999 -7.47998,-1.86999 -5.04332,0 -9.00997,2.43666 -3.90999,2.43666 -6.11998,6.91331 -2.21,4.47665 -2.21,10.36997 0,6.28998 2.38,10.87997 2.43666,4.58998 6.28998,7.02664 3.90999,2.38 8.21664,2.38 4.02332,0 7.93331,-2.26666 3.96666,-2.26666 6.79998,-5.66665 l 8.72664,8.04664 q -4.36332,5.38332 -10.08663,8.78331 -5.72332,3.34332 -13.93996,3.34332 z"
         style="letter-spacing:-15px"
         id="path966420" />
      <path
         d="m 791.84902,301.80588 q -8.55664,0 -14.56329,-3.85332 -6.00665,-3.90999 -9.12331,-11.1633 -3.05999,-7.30998 -3.05999,-17.39661 0,-9.80331 3.28666,-17.05662 3.28666,-7.30998 9.29331,-11.21997 6.06331,-3.90999 14.16662,-3.90999 8.10331,0 14.10996,3.90999 6.06332,3.85332 9.34997,11.1633 3.28666,7.25332 3.28666,17.11329 0,10.02997 -3.11666,17.33995 -3.05999,7.25331 -9.06664,11.1633 -6.00665,3.90998 -14.56329,3.90998 z m -0.22666,-12.01329 q 6.34664,0 9.8033,-5.32665 3.45666,-5.38332 3.45666,-14.84663 0,-6.23331 -1.58667,-10.8233 -1.58666,-4.64665 -4.58998,-7.08331 -3.00333,-2.49333 -7.08331,-2.49333 -3.90999,0 -6.79998,2.49333 -2.89,2.43666 -4.47666,7.08331 -1.52999,4.58999 -1.52999,10.8233 0,9.46331 3.34332,14.84663 3.39999,5.32665 9.46331,5.32665 z"
         id="path966422" />
      <path
         d="m 820.72229,251.25937 q 0,-6.96998 -0.85,-12.91997 h 12.46663 l 0.62333,6.57332 q 3.56999,-7.70665 10.36997,-7.70665 3.73999,0 6.17665,2.04 2.49333,2.03999 3.68332,6.91331 1.41666,-4.58999 4.87332,-6.68665 3.51332,-2.15332 7.87664,-2.15332 6.34665,0 10.08664,4.70332 3.79666,4.70332 3.79666,14.10996 v 44.53986 h -13.42996 v -43.2932 q 0,-4.64665 -0.96333,-6.74332 -0.90667,-2.09666 -3.28666,-2.09666 -5.26999,0 -5.26999,8.27331 v 43.85987 h -13.20329 v -43.2932 q 0,-4.47666 -1.24666,-6.62998 -1.24667,-2.21 -3.85332,-2.21 -2.32333,0 -3.45666,1.92667 -1.13333,1.92666 -1.13333,6.34664 v 43.85987 h -13.25996 z"
         style="letter-spacing:-5px"
         id="path966424" />
      <path
         d="m 886.38546,251.82603 q 0,-5.26998 -0.39667,-10.42663 l -0.16999,-3.06 h 13.14662 l 0.79333,8.95331 q 3.06,-5.32665 7.02665,-7.70664 4.02332,-2.38 9.29331,-2.38 8.04664,0 13.37329,4.81666 5.38332,4.75998 7.87664,12.12663 2.55,7.36664 2.55,15.29995 0,7.64998 -2.49333,14.90329 -2.49333,7.19665 -8.10331,12.0133 -5.55332,4.75999 -14.27996,4.75999 -5.04332,0 -8.61331,-1.81333 -3.51332,-1.87 -6.17664,-5.89332 v 28.78658 h -13.82663 z m 26.46326,38.98655 q 4.30665,0 7.30997,-3.05999 3.06,-3.05999 4.53332,-7.87664 1.47333,-4.81665 1.47333,-10.08664 0,-5.09998 -1.35999,-10.3133 -1.36,-5.26999 -4.30666,-8.83998 -2.88999,-3.56998 -7.25331,-3.56998 -4.30665,0 -7.47998,3.56998 -3.11665,3.51333 -4.75998,8.89665 -1.58666,5.32665 -1.58666,10.59663 0,4.98665 1.47332,9.74664 1.47333,4.75998 4.53332,7.87664 3.06,3.05999 7.42332,3.05999 z"
         style="letter-spacing:-15px"
         id="path966426" />
      <path
         d="m 948.39525,300.67255 0.0567,-19.83327 q 0.0567,-6.28998 0.0567,-16.09329 0,-6.00665 -0.34,-8.89664 -0.33999,-2.94666 -1.13333,-7.30998 h -9.2933 V 238.3394 h 20.56994 l 2.09666,10.53997 q 2.66332,-6.74331 7.53664,-9.2933 4.87332,-2.60666 10.14331,-2.60666 3.62665,0 8.27331,2.15333 4.70332,2.15332 7.59331,4.98665 l -7.81998,9.2933 q -1.86999,-1.75666 -4.47665,-2.77666 -2.55,-1.07666 -6.40332,-1.07666 -3.56999,0 -6.57331,2.49333 -2.94666,2.49332 -4.70332,7.36664 -1.75666,4.81665 -1.75666,11.6733 v 29.57991 z"
         style="letter-spacing:-20px"
         id="path966428" />
      <path
         d="m 1015.775,301.80588 q -7.3099,0 -13.9399,-3.62665 -6.63,-3.68332 -10.82332,-10.87997 -4.13665,-7.25331 -4.13665,-17.45328 0,-9.57664 3.45665,-16.94329 3.45666,-7.42331 9.80332,-11.50329 6.4033,-4.07999 14.9599,-4.07999 13.6567,0 19.6633,9.34997 6.0633,9.34997 6.0633,26.57659 h -40.3465 q 0.34,8.38664 4.59,12.69329 4.3066,4.30666 11.6166,4.30666 5.3267,0 10.2566,-1.53 4.9867,-1.52999 7.0834,-3.45665 l 5.2133,9.51997 q -2.21,1.75666 -6.0633,3.39999 -3.7967,1.64333 -8.4434,2.60666 -4.5899,1.01999 -8.9533,1.01999 z m 12.4667,-38.98655 q 0,-4.24999 -1.7,-7.59331 -1.7,-3.39999 -4.7033,-5.32665 -3.0034,-1.92666 -6.7434,-1.92666 -3.7966,0 -7.0266,1.86999 -3.23,1.87 -5.1567,5.26999 -1.8699,3.34332 -1.8699,7.70664 z"
         style="letter-spacing:-15px"
         id="path966430" />
      <path
         d="m 1067.3582,301.46589 q -8.5566,0 -14.5633,-2.72 -5.9499,-2.77666 -10.9366,-8.6133 l 7.5933,-8.38665 q 3.0033,2.83333 5.4967,4.58999 2.4933,1.75666 5.6666,2.83332 3.1733,1.07667 7.1967,1.07667 2.8333,0 5.4966,-0.79333 2.6633,-0.85 4.3633,-2.49333 1.7,-1.64333 1.7,-4.07999 0,-2.15332 -1.4733,-3.51332 -1.4167,-1.41666 -3.74,-2.26666 -2.3233,-0.85 -6.97,-2.09666 l -3.57,-0.96333 q -6.4599,-1.7 -10.7666,-3.79666 -4.3067,-2.09666 -6.7433,-5.49665 -2.4367,-3.45665 -2.4367,-8.6133 0,-5.60999 2.9467,-9.85998 2.9466,-4.30665 8.2733,-6.68664 5.3833,-2.38 12.3533,-2.38 7.3666,0 12.92,2.09666 5.6099,2.04 9.6333,6.17665 l -7.7067,8.27331 q -2.9466,-2.43666 -6.5733,-3.68332 -3.57,-1.30333 -7.5933,-1.30333 -3.3433,0 -6.0067,0.90666 -2.6066,0.85 -4.0799,2.43666 -1.4734,1.53 -1.4734,3.56999 0,2.49333 2.1534,4.19332 2.1533,1.7 5.1566,2.72 3.0033,1.01999 7.8766,2.26666 1.4167,0.34 4.6467,1.24666 6.63,2.03999 11.1066,5.94998 4.5334,3.85332 4.5334,11.1633 0,9.12331 -6.7434,13.7133 -6.6866,4.53332 -17.7366,4.53332 z"
         style="letter-spacing:-20px"
         id="path966432" />
      <path
         d="m 1115.3581,301.46589 q -8.5567,0 -14.5633,-2.72 -5.95,-2.77666 -10.9367,-8.6133 l 7.5934,-8.38665 q 3.0033,2.83333 5.4966,4.58999 2.4933,1.75666 5.6667,2.83332 3.1733,1.07667 7.1966,1.07667 2.8333,0 5.4967,-0.79333 2.6633,-0.85 4.3633,-2.49333 1.7,-1.64333 1.7,-4.07999 0,-2.15332 -1.4734,-3.51332 -1.4166,-1.41666 -3.7399,-2.26666 -2.3234,-0.85 -6.97,-2.09666 l -3.57,-0.96333 q -6.46,-1.7 -10.7667,-3.79666 -4.3066,-2.09666 -6.7433,-5.49665 -2.4366,-3.45665 -2.4366,-8.6133 0,-5.60999 2.9466,-9.85998 2.9467,-4.30665 8.2733,-6.68664 5.3834,-2.38 12.3533,-2.38 7.3667,0 12.92,2.09666 5.61,2.04 9.6333,6.17665 l -7.7066,8.27331 q -2.9467,-2.43666 -6.5734,-3.68332 -3.5699,-1.30333 -7.5933,-1.30333 -3.3433,0 -6.0066,0.90666 -2.6067,0.85 -4.08,2.43666 -1.4733,1.53 -1.4733,3.56999 0,2.49333 2.1533,4.19332 2.1533,1.7 5.1567,2.72 3.0033,1.01999 7.8766,2.26666 1.4167,0.34 4.6466,1.24666 6.63,2.03999 11.1067,5.94998 4.5333,3.85332 4.5333,11.1633 0,9.12331 -6.7433,13.7133 -6.6867,4.53332 -17.7366,4.53332 z"
         style="letter-spacing:-20px"
         id="path966434" />
      <path
         style="letter-spacing:-15px"
         d="m 1170.4979,238.3394 v 52.13318 h 15.4133 v 10.19997 h -45.1065 v -10.19997 h 15.8666 v -42.2732 h -16.8866 v -9.85998 z"
         id="path967647" />
      <path
         style="letter-spacing:-15px;fill:#4063d8;fill-opacity:1"
         d="m 1161.7713,228.3661 q -4.8167,0 -6.9134,-2.03999 -2.0399,-2.09666 -2.0399,-6.91332 0,-4.92998 2.0399,-6.91331 2.04,-2.03999 6.9134,-2.03999 4.9299,0 6.9133,2.03999 2.04,1.98333 2.04,6.91331 0,4.87332 -2.04,6.91332 -1.9834,2.03999 -6.9133,2.03999 z"
         id="path966436" />
      <path
         d="m 1219.7011,301.91922 q -5.27,0 -9.2367,-1.7 -3.91,-1.75666 -7.1966,-6.57331 l -0.34,7.02664 h -13.26 l 0.1133,-1.64332 q 0.34,-7.36665 0.34,-12.1833 v -75.70645 h 13.94 v 36.26656 q 2.9467,-4.87331 7.1967,-7.25331 4.2499,-2.37999 8.5566,-2.37999 7.8766,0 12.8066,4.47665 4.9867,4.41999 7.1967,11.78663 2.21,7.30998 2.21,16.37662 0,8.15998 -2.4934,15.35662 -2.4366,7.19665 -7.4799,11.6733 -5.0434,4.47666 -12.3533,4.47666 z m -4.08,-10.19997 q 4.7033,0 7.48,-3.22999 2.8333,-3.28666 3.9666,-8.04665 1.1333,-4.75998 1.1333,-9.68997 0,-9.40664 -2.72,-15.46995 -2.7199,-6.06332 -9.1799,-6.06332 -4.4767,0 -7.4233,3.05999 -2.9467,3.00333 -4.3634,7.93331 -1.36,4.92999 -1.36,10.76664 0,4.75998 1.2467,9.51997 1.2467,4.75999 4.0233,7.98998 2.8334,3.22999 7.1967,3.22999 z"
         style="letter-spacing:-25px"
         id="path966438" />
      <path
         d="m 1270.4075,302.03255 q -10.4833,0 -15.5833,-4.47665 -5.0433,-4.53332 -5.0433,-14.90329 v -61.42649 h -18.4733 v -10.08664 h 32.1866 v 68.79314 q 0,6.00664 2.4367,8.2733 2.4933,2.26666 7.1966,2.26666 2.7767,0 6.2333,-0.67999 3.4567,-0.73667 6.5733,-2.26666 v 11.6733 q -4.1366,1.69999 -7.5933,2.26666 -3.4566,0.56666 -7.9333,0.56666 z"
         style="letter-spacing:-15px"
         id="path966440" />
      <path
         d="m 1313.7741,301.80588 q -7.31,0 -13.94,-3.62665 -6.6299,-3.68332 -10.8233,-10.87997 -4.1366,-7.25331 -4.1366,-17.45328 0,-9.57664 3.4566,-16.94329 3.4567,-7.42331 9.8033,-11.50329 6.4034,-4.07999 14.96,-4.07999 13.6566,0 19.6633,9.34997 6.0633,9.34997 6.0633,26.57659 h -40.3466 q 0.34,8.38664 4.59,12.69329 4.3067,4.30666 11.6167,4.30666 5.3266,0 10.2566,-1.53 4.9866,-1.52999 7.0833,-3.45665 l 5.2133,9.51997 q -2.21,1.75666 -6.0633,3.39999 -3.7966,1.64333 -8.4433,2.60666 -4.59,1.01999 -8.9533,1.01999 z m 12.4666,-38.98655 q 0,-4.24999 -1.7,-7.59331 -1.7,-3.39999 -4.7033,-5.32665 -3.0033,-1.92666 -6.7433,-1.92666 -3.7967,0 -7.0266,1.86999 -3.23,1.87 -5.1567,5.26999 -1.87,3.34332 -1.87,7.70664 z"
         id="path966442" />
    </g>
    <text
       xml:space="preserve"
       style="font-style:normal;font-weight:normal;font-size:10.5833px;line-height:1.25;font-family:sans-serif;fill:#000000;fill-opacity:1;stroke:none;stroke-width:0.264583"
       x="350.37607"
       y="134.22003"
       id="text802902"><tspan
         sodipodi:role="line"
         id="tspan802900"
         style="stroke-width:0.264583"
         x="350.37607"
         y="134.22003" /></text>
  </g>
</svg>
